<?xml version="1.0" encoding="UTF-8"?>
<svg id="Layer_1" xmlns="http://www.w3.org/2000/svg" version="1.1" viewBox="0 0 32 32">
  <!-- Generator: Adobe Illustrator 30.2.1, SVG Export Plug-In . SVG Version: 2.1.1 Build 1)  -->
  <path d="M25.705,10.21c-.008-.005-.016-.009-.024-.014l-.846-.469-6.028-3.341-1.146-.636v6.384c.401.022.786.107,1.146.243.518.197.984.502,1.369.887.573.574.969,1.326,1.093,2.163.029.186.043.377.043.57,0,.196-.015.388-.044.576-.21,1.397-1.175,2.555-2.462,3.044-.36.136-.745.221-1.146.243v6.39l1.146-.636,6.028-3.341.837-.464c.013-.007.026-.014.038-.021.163-.102.272-.282.272-.488v-10.6c0-.208-.11-.39-.276-.49ZM24.834,20.962l-6.028,3.341v-3.468c1.936-.534,3.407-2.218,3.624-4.262h.45c.315,0,.573-.258.573-.573s-.258-.573-.573-.573h-.449c-.215-2.046-1.687-3.733-3.625-4.268v-3.462l6.028,3.341v9.924Z" fill="#101116"/>
  <path d="M11.824,13.264c.386-.385.851-.69,1.369-.887.36-.136.745-.221,1.146-.243v-6.384l-1.146.636-6.028,3.341-.846.469c-.009.004-.016.009-.024.014-.166.1-.276.282-.276.49v10.6c0,.206.108.386.272.488.012.007.025.014.038.021l.837.464,6.028,3.341,1.146.636v-6.39c-.401-.022-.786-.107-1.146-.243-1.287-.489-2.252-1.647-2.462-3.044-.029-.188-.044-.38-.044-.576,0-.193.014-.384.043-.57.125-.837.52-1.589,1.093-2.163ZM9.119,15.426c-.158,0-.301.064-.405.168-.104.104-.168.247-.168.405,0,.315.258.573.573.573h.45c.217,2.044,1.688,3.728,3.624,4.262v3.468l-6.028-3.341v-9.924l6.028-3.341v3.462c-1.938.535-3.41,2.221-3.625,4.268h-.449Z" fill="#101116"/>
  <g>
    <g>
      <g>
        <circle cx="14.101" cy="14.714" r=".806" fill="#0f0f4f"/>
        <circle cx="14.249" cy="14.543" r=".314" fill="#fff"/>
      </g>
      <g>
        <circle cx="17.899" cy="14.714" r=".806" fill="#0f0f4f"/>
        <circle cx="18.047" cy="14.543" r=".314" fill="#fff"/>
      </g>
    </g>
    <path d="M19.078,16.613c0,.196-.159.355-.355.355-.004,0-.009,0-.013,0-.689.79-1.657,1.281-2.729,1.281s-2.041-.492-2.729-1.282c-.184-.012-.33-.166-.33-.353,0-.024.002-.048.007-.07.029-.14.139-.251.279-.278.022-.004.044-.006.068-.006.196,0,.355.159.355.355,0,.049-.01.096-.028.138.649.694,1.476,1.11,2.378,1.11.913,0,1.751-.427,2.405-1.138-.011-.035-.018-.072-.018-.11,0-.196.159-.355.355-.355.011,0,.023,0,.034.002.142.013.259.111.302.242.011.035.018.072.018.11Z" fill="#0f0f4f"/>
  </g>
</svg>