<?xml version="1.0" encoding="UTF-8"?>
<svg id="Layer_1" xmlns="http://www.w3.org/2000/svg" xmlns:serif="http://www.serif.com/" version="1.1" viewBox="0 0 907.087 907.087">
  <!-- Generator: Adobe Illustrator 30.2.1, SVG Export Plug-In . SVG Version: 2.1.1 Build 1)  -->
  <path d="M906.035,150.781c0-82.639-67.092-149.73-149.731-149.73H150.781C68.143,1.051,1.051,68.142,1.051,150.781v605.524c0,82.638,67.092,149.73,149.73,149.73h605.524c82.639,0,149.731-67.092,149.731-149.73V150.781Z" fill="#ee4546" fill-rule="evenodd"/>
  <g>
    <path d="M739.266,283.072c-.232-.148-.464-.274-.717-.401l-24.915-13.818-177.465-98.374-33.755-18.713v187.95c11.814.654,23.143,3.143,33.755,7.152,15.253,5.802,28.966,14.789,40.316,26.118,16.877,16.898,28.523,39.029,32.194,63.67.844,5.485,1.266,11.097,1.266,16.793,0,5.759-.443,11.413-1.287,16.962-6.181,41.117-34.598,75.231-72.488,89.619-10.612,4.008-21.941,6.498-33.755,7.152v188.14l33.755-18.713,177.465-98.374,24.641-13.65c.38-.211.759-.422,1.118-.633,4.81-2.996,7.996-8.312,7.996-14.367v-312.083c0-6.118-3.249-11.477-8.122-14.43ZM713.633,599.627l-177.465,98.374v-102.108c57.003-15.717,100.315-65.294,106.707-125.483h13.249c9.283,0,16.877-7.595,16.877-16.877s-7.595-16.877-16.877-16.877h-13.228c-6.329-60.252-49.683-109.913-106.728-125.652v-101.918l177.465,98.374v292.167Z" fill="#fff"/>
    <path d="M330.603,372.986c11.35-11.329,25.063-20.316,40.316-26.118,10.612-4.008,21.941-6.498,33.755-7.152v-187.95l-33.755,18.713-177.465,98.374-24.915,13.818c-.253.127-.485.253-.717.401-4.873,2.954-8.122,8.312-8.122,14.43v312.083c0,6.055,3.186,11.371,7.996,14.367.359.211.738.422,1.118.633l24.641,13.65,177.465,98.374,33.755,18.713v-188.14c-11.814-.654-23.143-3.144-33.755-7.152-37.89-14.388-66.307-48.501-72.488-89.619-.844-5.548-1.287-11.202-1.287-16.962,0-5.696.422-11.308,1.266-16.793,3.671-24.641,15.316-46.771,32.194-63.67ZM250.963,436.655c-4.641,0-8.861,1.899-11.92,4.958-3.059,3.059-4.958,7.278-4.958,11.92,0,9.283,7.595,16.877,16.877,16.877h13.249c6.392,60.189,49.704,109.766,106.707,125.483v102.108l-177.465-98.374v-292.167l177.465-98.374v101.918c-57.045,15.738-100.399,65.4-106.728,125.652h-13.228Z" fill="#fff"/>
    <g>
      <g>
        <g>
          <circle cx="397.637" cy="415.678" r="23.734" fill="#0f0f4f"/>
          <circle cx="401.99" cy="410.647" r="9.235" fill="#fff"/>
        </g>
        <g>
          <circle cx="509.449" cy="415.678" r="23.734" fill="#0f0f4f"/>
          <circle cx="513.802" cy="410.647" r="9.235" fill="#fff"/>
        </g>
      </g>
      <path d="M544.153,471.602c0,5.759-4.683,10.443-10.443,10.443-.127,0-.253,0-.38-.021-20.274,23.249-48.775,37.721-80.336,37.721s-60.083-14.472-80.357-37.742c-5.422-.359-9.704-4.894-9.704-10.401,0-.717.063-1.413.211-2.067.844-4.135,4.093-7.384,8.228-8.186.654-.127,1.308-.19,2.004-.19,5.759,0,10.443,4.684,10.443,10.443,0,1.435-.295,2.827-.823,4.072,19.114,20.443,43.459,32.679,69.999,32.679,26.877,0,51.539-12.574,70.8-33.501-.338-1.034-.527-2.11-.527-3.249,0-5.759,4.683-10.443,10.443-10.443.338,0,.675.021,1.013.063,4.177.38,7.637,3.27,8.903,7.131.338,1.034.527,2.11.527,3.249Z" fill="#0f0f4f"/>
    </g>
  </g>
</svg>