<?xml version="1.0" encoding="UTF-8"?>
<svg id="Layer_1" xmlns="http://www.w3.org/2000/svg" xmlns:serif="http://www.serif.com/" version="1.1" viewBox="0 0 907.087 907.087">
  <!-- Generator: Adobe Illustrator 30.2.1, SVG Export Plug-In . SVG Version: 2.1.1 Build 1)  -->
  <circle cx="453.682" cy="453.586" r="451.857" fill="#ee4546"/>
  <g>
    <path d="M739.972,282.651c-.233-.148-.465-.275-.719-.402l-24.977-13.852-177.904-98.617-33.838-18.759v188.415c11.843.656,23.2,3.151,33.838,7.169,15.291,5.816,29.037,14.825,40.415,26.182,16.919,16.94,28.593,39.125,32.273,63.827.846,5.499,1.269,11.124,1.269,16.834,0,5.774-.444,11.442-1.29,17.004-6.197,41.219-34.684,75.417-72.667,89.84-10.638,4.018-21.995,6.514-33.838,7.169v188.605l33.838-18.759,177.904-98.617,24.702-13.683c.381-.211.761-.423,1.121-.634,4.822-3.003,8.015-8.333,8.015-14.402v-312.854c0-6.133-3.257-11.505-8.142-14.466ZM714.276,599.988l-177.904,98.617v-102.36c57.144-15.756,100.562-65.456,106.971-125.793h13.281c9.306,0,16.919-7.614,16.919-16.919s-7.614-16.919-16.919-16.919h-13.26c-6.345-60.401-49.805-110.185-106.992-125.962v-102.17l177.904,98.617v292.889Z" fill="#fff"/>
    <path d="M330.299,372.787c11.378-11.357,25.125-20.366,40.415-26.182,10.638-4.018,21.995-6.514,33.838-7.169v-188.415l-33.838,18.759-177.904,98.617-24.977,13.852c-.254.127-.486.254-.719.402-4.885,2.961-8.142,8.333-8.142,14.466v312.854c0,6.07,3.193,11.399,8.015,14.402.359.211.74.423,1.121.634l24.702,13.683,177.904,98.617,33.838,18.759v-188.605c-11.843-.656-23.2-3.151-33.838-7.169-37.983-14.423-66.471-48.621-72.667-89.84-.846-5.562-1.29-11.23-1.29-17.004,0-5.71.423-11.336,1.269-16.834,3.68-24.702,15.354-46.887,32.273-63.827ZM250.462,436.614c-4.653,0-8.883,1.903-11.949,4.97-3.066,3.067-4.97,7.296-4.97,11.949,0,9.306,7.614,16.919,16.919,16.919h13.281c6.408,60.338,49.827,110.037,106.97,125.793v102.36l-177.904-98.617v-292.889l177.904-98.617v102.17c-57.186,15.777-100.647,65.561-106.992,125.962h-13.26Z" fill="#fff"/>
    <g>
      <g>
        <g>
          <circle cx="397.499" cy="415.584" r="23.792" fill="#0f0f4f"/>
          <circle cx="401.862" cy="410.541" r="9.258" fill="#fff"/>
        </g>
        <g>
          <circle cx="509.588" cy="415.584" r="23.792" fill="#0f0f4f"/>
          <circle cx="513.951" cy="410.541" r="9.258" fill="#fff"/>
        </g>
      </g>
      <path d="M544.377,471.647c0,5.774-4.695,10.469-10.469,10.469-.127,0-.254,0-.381-.021-20.324,23.306-48.896,37.814-80.534,37.814s-60.232-14.508-80.556-37.835c-5.435-.359-9.728-4.907-9.728-10.426,0-.719.063-1.417.211-2.073.846-4.145,4.103-7.402,8.248-8.206.656-.127,1.311-.19,2.009-.19,5.774,0,10.469,4.695,10.469,10.469,0,1.438-.296,2.834-.825,4.082,19.161,20.493,43.567,32.759,70.172,32.759,26.944,0,51.666-12.605,70.975-33.584-.338-1.036-.529-2.115-.529-3.257,0-5.774,4.695-10.469,10.469-10.469.338,0,.677.021,1.015.064,4.187.381,7.656,3.278,8.925,7.148.338,1.036.529,2.115.529,3.257Z" fill="#0f0f4f"/>
    </g>
  </g>
</svg>