<?xml version="1.0" encoding="UTF-8"?>
<svg id="Layer_1" xmlns="http://www.w3.org/2000/svg" xmlns:serif="http://www.serif.com/" version="1.1" viewBox="0 0 907.087 907.087">
  <!-- Generator: Adobe Illustrator 30.2.1, SVG Export Plug-In . SVG Version: 2.1.1 Build 1)  -->
  <path d="M906.035,150.781c0-82.639-67.092-149.73-149.731-149.73H150.781C68.143,1.051,1.051,68.142,1.051,150.781v605.524c0,82.638,67.092,149.73,149.73,149.73h605.524c82.639,0,149.731-67.092,149.731-149.73V150.781Z" fill="#ee4546" fill-rule="evenodd"/>
  <g>
    <path d="M739.141,283.146c-.232-.148-.464-.274-.717-.401l-24.904-13.812-177.387-98.331-33.74-18.705v187.868c11.809.654,23.133,3.142,33.74,7.149,15.246,5.799,28.953,14.782,40.298,26.106,16.87,16.891,28.51,39.012,32.179,63.642.844,5.483,1.265,11.092,1.265,16.786,0,5.757-.443,11.408-1.286,16.954-6.179,41.1-34.583,75.198-72.456,89.58-10.607,4.007-21.931,6.495-33.74,7.149v188.058l33.74-18.705,177.387-98.331,24.63-13.644c.38-.211.759-.422,1.118-.633,4.808-2.994,7.992-8.308,7.992-14.361v-311.946c0-6.115-3.247-11.472-8.119-14.424ZM713.52,599.563l-177.387,98.331v-102.063c56.978-15.71,100.271-65.266,106.66-125.428h13.243c9.279,0,16.87-7.591,16.87-16.87s-7.591-16.87-16.87-16.87h-13.222c-6.326-60.226-49.661-109.865-106.681-125.597v-101.873l177.387,98.331v292.04Z" fill="#fff"/>
    <path d="M330.656,373.021c11.345-11.324,25.052-20.307,40.298-26.106,10.607-4.007,21.931-6.495,33.74-7.149v-187.868l-33.74,18.705-177.387,98.331-24.904,13.812c-.253.127-.485.253-.717.401-4.871,2.952-8.119,8.308-8.119,14.424v311.946c0,6.052,3.184,11.366,7.992,14.361.358.211.738.422,1.118.633l24.63,13.644,177.387,98.331,33.74,18.705v-188.058c-11.809-.654-23.133-3.142-33.74-7.149-37.873-14.382-66.278-48.48-72.456-89.58-.844-5.546-1.286-11.197-1.286-16.954,0-5.694.422-11.303,1.265-16.786,3.669-24.63,15.309-46.751,32.179-63.642ZM251.051,436.663c-4.639,0-8.857,1.898-11.914,4.956-3.058,3.058-4.955,7.275-4.955,11.914,0,9.279,7.591,16.87,16.87,16.87h13.243c6.389,60.163,49.682,109.718,106.66,125.428v102.063l-177.387-98.331v-292.04l177.387-98.331v101.873c-57.02,15.731-100.355,65.371-106.681,125.597h-13.222Z" fill="#fff"/>
    <g>
      <g>
        <g>
          <circle cx="397.662" cy="415.694" r="23.723" fill="#0f0f4f"/>
          <circle cx="402.012" cy="410.666" r="9.231" fill="#fff"/>
        </g>
        <g>
          <circle cx="509.425" cy="415.694" r="23.723" fill="#0f0f4f"/>
          <circle cx="513.776" cy="410.666" r="9.231" fill="#fff"/>
        </g>
      </g>
      <path d="M544.114,471.594c0,5.757-4.681,10.438-10.438,10.438-.127,0-.253,0-.38-.021-20.265,23.238-48.754,37.704-80.301,37.704s-60.057-14.466-80.322-37.725c-5.419-.358-9.7-4.892-9.7-10.396,0-.717.063-1.413.211-2.067.844-4.133,4.091-7.381,8.224-8.182.654-.127,1.307-.19,2.003-.19,5.757,0,10.438,4.681,10.438,10.438,0,1.434-.295,2.826-.822,4.07,19.105,20.434,43.44,32.664,69.968,32.664,26.865,0,51.517-12.568,70.769-33.487-.337-1.033-.527-2.109-.527-3.247,0-5.757,4.681-10.438,10.438-10.438.337,0,.675.021,1.012.063,4.175.38,7.634,3.269,8.899,7.128.337,1.033.527,2.109.527,3.247Z" fill="#0f0f4f"/>
    </g>
  </g>
</svg>