<?xml version="1.0" encoding="UTF-8"?>
<svg id="Layer_1" xmlns="http://www.w3.org/2000/svg" xmlns:serif="http://www.serif.com/" version="1.1" viewBox="0 0 907.087 907.087">
  <!-- Generator: Adobe Illustrator 30.2.1, SVG Export Plug-In . SVG Version: 2.1.1 Build 1)  -->
  <rect y="0" width="907.087" height="907.087" fill="#ee4546"/>
  <path d="M815.689,211.284c0-66.111-53.674-119.784-119.785-119.784H211.486c-66.11,0-119.784,53.673-119.784,119.784v484.419c0,66.11,53.674,119.784,119.784,119.784h484.419c66.111,0,119.785-53.674,119.785-119.784V211.284Z" fill="#ee4546" fill-rule="evenodd"/>
  <g>
    <path d="M682.174,317.176c-.186-.118-.371-.219-.574-.321l-19.923-11.05-141.91-78.665-26.992-14.964v150.294c9.447.523,18.506,2.514,26.992,5.719,12.197,4.639,23.162,11.826,32.238,20.885,13.496,13.513,22.808,31.209,25.744,50.913.675,4.386,1.012,8.874,1.012,13.429,0,4.605-.354,9.127-1.029,13.563-4.943,32.88-27.667,60.158-57.965,71.664-8.486,3.205-17.545,5.196-26.992,5.719v150.446l26.992-14.964,141.91-78.665,19.704-10.915c.304-.169.607-.337.894-.506,3.846-2.396,6.394-6.647,6.394-11.488v-249.557c0-4.892-2.598-9.177-6.495-11.539ZM661.677,570.309l-141.91,78.665v-81.65c45.583-12.568,80.217-52.213,85.328-100.343h10.594c7.423,0,13.496-6.073,13.496-13.496s-6.073-13.496-13.496-13.496h-10.577c-5.061-48.181-39.729-87.892-85.345-100.477v-81.499l141.91,78.665v233.632Z" fill="#fff"/>
    <path d="M355.386,389.075c9.076-9.059,20.042-16.246,32.238-20.885,8.486-3.205,17.545-5.196,26.992-5.719v-150.294l-26.992,14.964-141.91,78.665-19.923,11.05c-.202.101-.388.202-.574.321-3.897,2.362-6.495,6.647-6.495,11.539v249.557c0,4.842,2.547,9.093,6.394,11.488.287.169.59.337.894.506l19.704,10.915,141.91,78.665,26.992,14.964v-150.446c-9.447-.523-18.506-2.514-26.992-5.719-30.298-11.505-53.022-38.784-57.965-71.664-.675-4.437-1.029-8.958-1.029-13.563,0-4.555.337-9.042,1.012-13.429,2.935-19.704,12.248-37.401,25.744-50.913ZM291.702,439.989c-3.711,0-7.085,1.518-9.532,3.964-2.446,2.446-3.964,5.82-3.964,9.531,0,7.423,6.073,13.496,13.496,13.496h10.594c5.112,48.13,39.746,87.774,85.328,100.343v81.65l-141.91-78.665v-233.632l141.91-78.665v81.499c-45.616,12.585-80.284,52.297-85.345,100.477h-10.577Z" fill="#fff"/>
    <g>
      <g>
        <g>
          <circle cx="408.99" cy="423.214" r="18.979" fill="#0f0f4f"/>
          <circle cx="412.471" cy="419.191" r="7.385" fill="#fff"/>
        </g>
        <g>
          <circle cx="498.401" cy="423.214" r="18.979" fill="#0f0f4f"/>
          <circle cx="501.881" cy="419.191" r="7.385" fill="#fff"/>
        </g>
      </g>
      <path d="M526.152,467.934c0,4.605-3.745,8.351-8.351,8.351-.101,0-.202,0-.304-.017-16.212,18.591-39.003,30.163-64.241,30.163s-48.046-11.573-64.258-30.18c-4.336-.287-7.76-3.914-7.76-8.317,0-.574.051-1.13.169-1.653.675-3.307,3.273-5.904,6.579-6.546.523-.101,1.046-.152,1.603-.152,4.606,0,8.351,3.745,8.351,8.351,0,1.147-.236,2.261-.658,3.256,15.284,16.347,34.752,26.132,55.975,26.132,21.492,0,41.213-10.054,56.616-26.789-.27-.827-.422-1.687-.422-2.598,0-4.605,3.745-8.351,8.351-8.351.27,0,.54.017.81.051,3.34.304,6.107,2.615,7.119,5.702.27.827.422,1.687.422,2.598Z" fill="#0f0f4f"/>
    </g>
  </g>
</svg>