<?xml version="1.0" encoding="UTF-8"?>
<svg id="Layer_1" xmlns="http://www.w3.org/2000/svg" xmlns:serif="http://www.serif.com/" version="1.1" viewBox="0 0 907.087 907.087">
  <!-- Generator: Adobe Illustrator 30.2.1, SVG Export Plug-In . SVG Version: 2.1.1 Build 1)  -->
  <g>
    <path d="M421.971,714.984l-46.141-.049c-38.253.046-69.383-31.085-69.391-69.391l-.022-382.268c-.008-38.306,31.092-69.406,69.398-69.398l54.177-.005-36.558-36.558c-27.086-27.086-71.07-27.056-98.161.035L51.304,401.319c-27.091,27.091-27.121,71.076-.035,98.161l244.04,244.04c27.086,27.086,71.07,27.056,98.161-.035l28.501-28.501Z" fill="none" stroke="#000" stroke-miterlimit="10" stroke-width=".3"/>
    <path d="M421.986,714.967h369.944c38.276,0,69.391-31.119,69.391-69.45v-382.175c0-38.331-31.115-69.45-69.391-69.45h-361.94" fill="none" stroke="#000" stroke-miterlimit="10" stroke-width=".28"/>
    <path d="M429.99,193.893h-54.165c-38.276,0-69.391,31.119-69.391,69.45v382.175c0,38.331,31.115,69.45,69.391,69.45h46.16" fill="none" stroke="#000" stroke-miterlimit="10" stroke-width=".28"/>
    <circle cx="170.922" cy="451.956" r="50.836"/>
    <path d="M182.4,451.926h122.288" fill="none" stroke="#000" stroke-linejoin="round" stroke-width=".65"/>
  </g>
  <g>
    <path d="M779.904,330.868c-.152-.096-.303-.179-.468-.262l-16.266-9.021-115.858-64.223-22.037-12.217v122.703c7.713.427,15.109,2.052,22.037,4.669,9.958,3.788,18.91,9.655,26.32,17.051,11.018,11.032,18.621,25.48,21.018,41.567.551,3.581.826,7.245.826,10.963,0,3.76-.289,7.451-.84,11.073-4.035,26.844-22.588,49.114-47.324,58.507-6.928,2.617-14.324,4.242-22.037,4.669v122.827l22.037-12.217,115.858-64.223,16.087-8.911c.248-.138.496-.275.73-.413,3.14-1.956,5.22-5.427,5.22-9.379v-203.743c0-3.994-2.121-7.492-5.303-9.421ZM763.169,537.531l-115.858,64.223v-66.661c37.215-10.261,65.49-42.627,69.664-81.921h8.649c6.06,0,11.018-4.958,11.018-11.018s-4.958-11.018-11.018-11.018h-8.636c-4.132-39.336-32.435-71.757-69.677-82.032v-66.537l115.858,64.223v190.741Z"/>
    <path d="M513.108,389.569c7.41-7.396,16.362-13.263,26.32-17.051,6.928-2.617,14.324-4.242,22.037-4.669v-122.703l-22.037,12.217-115.858,64.223-16.266,9.021c-.165.083-.317.165-.468.262-3.182,1.928-5.303,5.427-5.303,9.421v203.743c0,3.953,2.08,7.424,5.22,9.379.234.138.482.275.73.413l16.087,8.911,115.858,64.223,22.037,12.217v-122.827c-7.713-.427-15.109-2.052-22.037-4.669-24.736-9.393-43.288-31.664-47.324-58.507-.551-3.622-.84-7.313-.84-11.073,0-3.719.275-7.382.826-10.963,2.396-16.087,9.999-30.535,21.018-41.567ZM461.115,431.135c-3.03,0-5.785,1.24-7.782,3.237-1.997,1.997-3.237,4.752-3.237,7.782,0,6.06,4.958,11.018,11.018,11.018h8.649c4.173,39.294,32.449,71.661,69.663,81.921v66.661l-115.858-64.223v-190.741l115.858-64.223v66.537c-37.242,10.275-65.545,42.696-69.677,82.032h-8.636Z"/>
    <g>
      <g>
        <g>
          <circle cx="556.871" cy="417.44" r="15.495" fill="#0f0f4f"/>
          <circle cx="559.713" cy="414.156" r="6.029" fill="#fff"/>
        </g>
        <g>
          <circle cx="629.868" cy="417.44" r="15.495" fill="#0f0f4f"/>
          <circle cx="632.71" cy="414.156" r="6.029" fill="#fff"/>
        </g>
      </g>
      <path d="M652.524,453.95c0,3.76-3.058,6.818-6.818,6.818-.083,0-.165,0-.248-.014-13.236,15.178-31.843,24.626-52.447,24.626s-39.225-9.448-52.461-24.64c-3.54-.234-6.336-3.195-6.336-6.79,0-.468.041-.923.138-1.35.551-2.7,2.672-4.821,5.371-5.344.427-.083.854-.124,1.308-.124,3.76,0,6.818,3.058,6.818,6.818,0,.937-.193,1.846-.537,2.658,12.478,13.346,28.372,21.334,45.699,21.334,17.547,0,33.647-8.209,46.222-21.871-.22-.675-.344-1.377-.344-2.121,0-3.76,3.058-6.818,6.818-6.818.22,0,.441.014.661.041,2.727.248,4.986,2.135,5.812,4.655.22.675.344,1.377.344,2.121Z" fill="#0f0f4f"/>
    </g>
  </g>
</svg>