<?xml version="1.0" encoding="UTF-8"?>
<svg id="Layer_1" xmlns="http://www.w3.org/2000/svg" version="1.1" viewBox="0 0 1440 1440">
  <!-- Generator: Adobe Illustrator 30.2.1, SVG Export Plug-In . SVG Version: 2.1.1 Build 1)  -->
  <g>
    <path d="M276.541,939.395c12.024,0,21.711,9.687,21.711,21.711v53.442c0,12.024-9.687,21.711-21.711,21.711h-55.112c-12.025,0-21.711-9.687-21.711-21.711v-53.442c0-12.024,9.686-21.711,21.711-21.711h55.112ZM221.429,957.432c-2.004,0-3.674,1.67-3.674,3.674v53.442c0,2.004,1.67,3.674,3.674,3.674h55.112c2.004,0,3.674-1.67,3.674-3.674v-53.442c0-2.004-1.67-3.674-3.674-3.674h-55.112Z" fill="#7a7a7a"/>
    <path d="M420.16,961.106v53.442c0,12.024-9.687,21.711-21.711,21.711h-58.787v38.412h-18.037v-135.276h76.823c12.024,0,21.711,9.687,21.711,21.711ZM402.123,961.106c0-2.004-1.67-3.674-3.674-3.674h-55.112c-2.004,0-3.674,1.67-3.674,3.674v53.442c0,2.004,1.67,3.674,3.674,3.674h55.112c2.004,0,3.674-1.67,3.674-3.674v-53.442Z" fill="#7a7a7a"/>
    <path d="M536.389,961.106v35.739h-80.498v17.703c0,2.004,1.67,3.674,3.674,3.674h76.823v18.037h-76.823c-12.025,0-21.711-9.687-21.711-21.711v-53.442c0-12.024,9.686-21.711,21.711-21.711h55.112c12.024,0,21.711,9.687,21.711,21.711ZM518.353,978.809v-17.703c0-2.004-1.67-3.674-3.674-3.674h-55.112c-2.004,0-3.674,1.67-3.674,3.674v17.703h62.461Z" fill="#7a7a7a"/>
    <path d="M658.297,961.106v75.153h-18.037v-75.153c0-2.004-1.67-3.674-3.674-3.674h-55.112c-2.004,0-3.674,1.67-3.674,3.674v75.153h-18.037v-96.864h76.823c12.024,0,21.711,9.687,21.711,21.711Z" fill="#7a7a7a"/>
    <path d="M781.042,916.014c12.024,0,21.711,9.687,21.711,21.711v98.534h-18.037v-42.086h-84.171v42.086h-18.037v-98.534c0-12.024,9.687-21.711,21.711-21.711h76.823ZM784.716,976.136v-38.411c0-2.004-1.67-3.675-3.674-3.675h-76.823c-2.004,0-3.674,1.671-3.674,3.675v38.411h84.171Z" fill="#7a7a7a"/>
    <path d="M923.66,999.518v53.442c0,12.024-9.687,21.711-21.711,21.711h-59.789v-18.037h59.789c2.004,0,3.674-1.67,3.674-3.674v-16.701h-58.786c-12.024,0-21.711-9.687-21.711-21.711v-53.442c0-12.024,9.687-21.711,21.711-21.711h55.112c12.024,0,21.711,9.687,21.711,21.711v38.412ZM901.949,1018.222c2.004,0,3.674-1.67,3.674-3.674v-53.442c0-2.004-1.67-3.674-3.674-3.674h-55.112c-2.005,0-3.675,1.67-3.675,3.674v53.442c0,2.004,1.67,3.674,3.675,3.674h55.112Z" fill="#7a7a7a"/>
    <path d="M1043.9,961.106v35.739h-80.498v17.703c0,2.004,1.671,3.674,3.675,3.674h76.823v18.037h-76.823c-12.024,0-21.711-9.687-21.711-21.711v-53.442c0-12.024,9.687-21.711,21.711-21.711h55.112c12.024,0,21.711,9.687,21.711,21.711ZM1025.863,978.809v-17.703c0-2.004-1.67-3.674-3.674-3.674h-55.112c-2.004,0-3.675,1.67-3.675,3.674v17.703h62.461Z" fill="#7a7a7a"/>
    <path d="M1165.808,961.106v75.153h-18.037v-75.153c0-2.004-1.67-3.674-3.674-3.674h-55.112c-2.004,0-3.674,1.67-3.674,3.674v75.153h-18.037v-96.864h76.823c12.024,0,21.711,9.687,21.711,21.711Z" fill="#7a7a7a"/>
    <path d="M1207.221,957.432v57.116c0,2.004,1.67,3.674,3.674,3.674h36.073v18.037h-36.073c-12.024,0-21.711-9.687-21.711-21.711v-106.885h18.037v31.731h39.747v18.037h-39.747Z" fill="#7a7a7a"/>
  </g>
  <g>
    <path d="M971.758,393.889c-.205-.13-.409-.242-.632-.353l-21.953-12.176-156.369-86.68-29.742-16.488v165.608c10.41.576,20.392,2.77,29.742,6.302,13.44,5.112,25.522,13.031,35.523,23.013,14.871,14.89,25.132,34.389,28.367,56.101.744,4.833,1.115,9.778,1.115,14.797,0,5.075-.39,10.057-1.134,14.945-5.447,36.23-30.486,66.288-63.871,78.966-9.35,3.532-19.332,5.725-29.742,6.302v165.775l29.742-16.488,156.369-86.68,21.712-12.027c.335-.186.669-.372.985-.558,4.238-2.64,7.045-7.324,7.045-12.659v-274.985c0-5.391-2.863-10.112-7.157-12.715ZM949.173,672.814l-156.369,86.68v-89.97c50.227-13.849,88.39-57.533,94.022-110.567h11.674c8.179,0,14.871-6.692,14.871-14.871s-6.692-14.871-14.871-14.871h-11.655c-5.577-53.09-43.777-96.848-94.041-110.715v-89.803l156.369,86.68v257.437Z" fill="#7a7a7a"/>
    <path d="M611.673,473.114c10.001-9.982,22.084-17.901,35.523-23.013,9.35-3.532,19.332-5.725,29.742-6.302v-165.608l-29.742,16.488-156.369,86.68-21.953,12.176c-.223.112-.428.223-.632.353-4.294,2.602-7.157,7.324-7.157,12.715v274.985c0,5.335,2.807,10.019,7.045,12.659.316.186.651.372.985.558l21.712,12.027,156.369,86.68,29.742,16.488v-165.775c-10.41-.576-20.392-2.77-29.742-6.302-33.386-12.678-58.425-42.736-63.871-78.966-.744-4.889-1.134-9.871-1.134-14.945,0-5.019.372-9.964,1.115-14.797,3.234-21.712,13.496-41.211,28.367-56.101ZM541.501,529.216c-4.09,0-7.807,1.673-10.503,4.368-2.695,2.695-4.368,6.413-4.368,10.503,0,8.179,6.692,14.871,14.871,14.871h11.674c5.632,53.034,43.795,96.718,94.022,110.567v89.97l-156.369-86.68v-257.437l156.369-86.68v89.803c-50.264,13.867-88.464,57.625-94.041,110.715h-11.655Z" fill="#7a7a7a"/>
    <g>
      <g>
        <g>
          <circle cx="670.74" cy="510.732" r="20.912" fill="#0f0f4f"/>
          <circle cx="674.575" cy="506.299" r="8.137" fill="#fff"/>
        </g>
        <g>
          <circle cx="769.26" cy="510.732" r="20.912" fill="#0f0f4f"/>
          <circle cx="773.096" cy="506.299" r="8.137" fill="#fff"/>
        </g>
      </g>
      <path d="M799.839,560.008c0,5.075-4.127,9.202-9.202,9.202-.112,0-.223,0-.335-.019-17.864,20.485-42.977,33.237-70.786,33.237s-52.941-12.752-70.805-33.255c-4.777-.316-8.551-4.313-8.551-9.164,0-.632.056-1.245.186-1.822.744-3.643,3.606-6.506,7.25-7.212.576-.112,1.152-.167,1.766-.167,5.075,0,9.202,4.127,9.202,9.202,0,1.264-.26,2.491-.725,3.588,16.841,18.013,38.293,28.794,61.678,28.794,23.682,0,45.413-11.079,62.384-29.519-.297-.911-.465-1.859-.465-2.863,0-5.075,4.127-9.202,9.201-9.202.297,0,.595.019.892.056,3.681.335,6.729,2.881,7.844,6.283.297.911.465,1.859.465,2.863Z" fill="#0f0f4f"/>
    </g>
  </g>
</svg>